<?xml version="1.0" standalone="no"?><!DOCTYPE svg PUBLIC "-//W3C//DTD SVG 1.1//EN" "http://www.w3.org/Graphics/SVG/1.1/DTD/svg11.dtd"><svg t="1651416919931" class="icon" viewBox="0 0 1024 1024" version="1.1" xmlns="http://www.w3.org/2000/svg" p-id="8457" xmlns:xlink="http://www.w3.org/1999/xlink" width="200" height="200"><defs><style type="text/css"></style></defs><path d="M802.665 225.705c-76.822-76.701-178.89-119.057-287.508-119.057s-210.686 42.356-287.388 119.057c-76.822 76.822-119.057 178.89-119.057 287.508s42.235 210.686 119.057 287.508 178.89 119.057 287.388 119.057 210.686-42.235 287.508-119.057c76.822-76.822 119.057-178.89 119.057-287.508s-42.235-210.686-119.057-287.508zM515.155 861.525c-192.117 0-348.311-156.194-348.311-348.311s156.194-348.311 348.311-348.311 348.311 156.194 348.311 348.311-156.194 348.311-348.311 348.311z" fill="" p-id="8458"></path><path d="M562.002 325.586l-46.846 97.94-46.725-97.94h-102.188l84.711 162.99h-73.789v31.434h88.716v72.94h-79.129v31.554h79.129v89.081h98.304v-89.081h79.493v-31.554h-79.493v-72.94h89.081v-31.434h-74.274l85.197-162.99z" fill="" p-id="8459"></path></svg>